<svg xmlns="http://www.w3.org/2000/svg" version="1.1" xmlns:xlink="http://www.w3.org/1999/xlink" xmlns:svgjs="http://svgjs.com/svgjs" width="512" height="512" x="0" y="0" viewBox="0 0 512 512" style="enable-background:new 0 0 512 512" xml:space="preserve" class=""><g><g xmlns="http://www.w3.org/2000/svg"><g><circle cx="256" cy="256" fill="#ffcd55" r="256" data-original="#ffcd55" class=""></circle><g><g><path d="m353.987 19.44-97.987 236.56v-256c34.711 0 67.802 6.923 97.987 19.44z" fill="#f9b83f" data-original="#f9b83f"></path></g><g fill="#f9b83f"><path d="m437.019 74.981c23.579 23.579 42.566 51.744 55.541 83.033l-236.56 97.986z" fill="#f9b83f" data-original="#f9b83f"></path><path d="m256 256 236.56 97.987c12.518-30.185 19.44-63.275 19.44-97.987z" fill="#f9b83f" data-original="#f9b83f"></path></g></g><g><g><path d="m158.013 492.56 97.987-236.56v256c-34.711 0-67.802-6.923-97.987-19.44z" fill="#f9b83f" data-original="#f9b83f"></path></g><g fill="#f9b83f"><path d="m74.981 437.019c-23.579-23.579-42.566-51.744-55.541-83.033l236.56-97.986z" fill="#f9b83f" data-original="#f9b83f"></path><path d="m256 256-236.56-97.987c-12.518 30.185-19.44 63.275-19.44 97.987z" fill="#f9b83f" data-original="#f9b83f"></path></g></g></g><circle cx="256" cy="256" fill="#fff4ca" r="214.793" data-original="#fff4ca"></circle><g><path d="m172.615 302.898 12.224-12.224c4.023-4.023 10.546-4.023 14.569 0l56.592 56.592 56.592-56.592c4.023-4.023 10.546-4.023 14.569 0l12.224 12.224c4.023 4.023 4.023 10.546 0 14.569l-76.1 76.1c-4.023 4.023-10.546 4.023-14.569 0l-76.1-76.1c-4.024-4.023-4.024-10.546-.001-14.569z" fill="#ffcd55" data-original="#ffcd55" class=""></path><g><path d="m339.385 302.898-12.224-12.224c-4.023-4.023-10.546-4.023-14.569 0l-83.377 83.393 19.5 19.5c4.023 4.023 10.546 4.023 14.569 0l76.1-76.1c4.024-4.023 4.024-10.546.001-14.569z" fill="#ffbe46" data-original="#ffbe46"></path></g><path d="m256 164.734-56.592 56.592c-4.023 4.023-10.546 4.023-14.569 0l-12.224-12.224c-4.023-4.023-4.023-10.546 0-14.569l76.1-76.1c4.023-4.023 10.546-4.023 14.569 0l76.1 76.1c4.023 4.023 4.023 10.546 0 14.569l-12.224 12.224c-4.023 4.023-10.546 4.023-14.569 0z" fill="#ffcd55" data-original="#ffcd55" class=""></path><g><path d="m339.385 194.533-76.1-76.1c-4.023-4.023-10.546-4.023-14.569 0l-19.5 19.5 83.377 83.393c4.023 4.023 10.546 4.023 14.569 0l12.224-12.224c4.022-4.023 4.022-10.546-.001-14.569z" fill="#ffbe46" data-original="#ffbe46"></path></g><path d="m354.551 248.716 12.224-12.224c4.023-4.023 10.546-4.023 14.569 0l12.223 12.224c4.023 4.023 4.023 10.546 0 14.569l-12.223 12.224c-4.023 4.023-10.546 4.023-14.569 0l-12.224-12.224c-4.023-4.024-4.023-10.546 0-14.569z" fill="#ffbe46" data-original="#ffbe46"></path><g fill="#ffcd55"><path d="m236.492 248.716 12.224-12.224c4.023-4.023 10.546-4.023 14.569 0l12.224 12.224c4.023 4.023 4.023 10.546 0 14.569l-12.224 12.224c-4.023 4.023-10.546 4.023-14.569 0l-12.224-12.224c-4.023-4.024-4.023-10.546 0-14.569z" fill="#ffcd55" data-original="#ffcd55" class=""></path><path d="m118.433 248.716 12.223-12.224c4.023-4.023 10.546-4.023 14.569 0l12.224 12.224c4.023 4.023 4.023 10.546 0 14.569l-12.224 12.224c-4.023 4.023-10.546 4.023-14.569 0l-12.223-12.224c-4.023-4.024-4.023-10.546 0-14.569z" fill="#ffcd55" data-original="#ffcd55" class=""></path></g></g></g></g></svg>