<svg xmlns="http://www.w3.org/2000/svg" version="1.1" xmlns:xlink="http://www.w3.org/1999/xlink" xmlns:svgjs="http://svgjs.com/svgjs" width="512" height="512" x="0" y="0" viewBox="0 0 512 512" style="enable-background:new 0 0 512 512" xml:space="preserve" class=""><g><g xmlns="http://www.w3.org/2000/svg"><path d="m16 376a120.155 120.155 0 0 1 112.5-119.768l-.99-15.97c-71.503 4.431-127.51 64.054-127.51 135.738s56.007 131.307 127.505 135.737l.99-15.968a120.157 120.157 0 0 1 -112.495-119.769z" fill="#ffffff" data-original="#000000" class=""></path><path d="m144.5 240.262-.99 15.97a120 120 0 0 1 0 239.537l.99 15.968c71.493-4.43 127.5-64.053 127.5-135.737s-56.007-131.307-127.5-135.738z" fill="#ffffff" data-original="#000000" class=""></path><path d="m197.1 302a95.84 95.84 0 0 0 -122.2 0l10.2 12.33a79.836 79.836 0 0 1 101.8 0z" fill="#ffffff" data-original="#000000" class=""></path><path d="m62 314.9a95.838 95.838 0 0 0 0 122.2l12.33-10.2a79.834 79.834 0 0 1 0-101.8z" fill="#ffffff" data-original="#000000" class=""></path><path d="m186.9 437.669a79.836 79.836 0 0 1 -101.8 0l-10.2 12.331a95.84 95.84 0 0 0 122.2 0z" fill="#ffffff" data-original="#000000" class=""></path><path d="m210 437.1a95.836 95.836 0 0 0 0-122.2l-12.33 10.2a79.832 79.832 0 0 1 0 101.8z" fill="#ffffff" data-original="#000000" class=""></path><path d="m140.116 321.14a8 8 0 0 0 -8.232 0l-40 24a8 8 0 0 0 -3.884 6.86v48a8 8 0 0 0 3.884 6.86l40 24a8 8 0 0 0 8.232 0l40-24a8 8 0 0 0 3.884-6.86v-48a8 8 0 0 0 -3.884-6.86zm27.884 74.331-32 19.2-32-19.2v-38.942l32-19.2 32 19.2z" fill="#ffffff" data-original="#000000" class=""></path><path d="m376 0a136.1 136.1 0 0 0 -102 46.132l12 10.584a119.944 119.944 0 0 1 187.5 149.156l12.992 9.339a134.92 134.92 0 0 0 25.508-79.211c0-74.991-61.01-136-136-136z" fill="#ffffff" data-original="#000000" class=""></path><path d="m376 256a119.946 119.946 0 0 1 -99.175-187.489l-13.213-9.023a135.142 135.142 0 0 0 -23.612 76.512c0 74.991 61.01 136 136 136a134.762 134.762 0 0 0 98.675-42.5l-11.612-11a118.9 118.9 0 0 1 -87.063 37.5z" fill="#ffffff" data-original="#000000" class=""></path><path d="m360 64v16h-32v16h8v80h-8v16h32v16h16v-16h8v16h16v-16a31.987 31.987 0 0 0 21.144-56 31.987 31.987 0 0 0 -21.144-56v-16h-16v16h-8v-16zm56 96a16.019 16.019 0 0 1 -16 16h-48v-32h48a16.019 16.019 0 0 1 16 16zm0-48a16.019 16.019 0 0 1 -16 16h-48v-32h48a16.019 16.019 0 0 1 16 16z" fill="#ffffff" data-original="#000000" class=""></path><path d="m299.676 65.421a104.011 104.011 0 0 0 67.663 174.222l1.322-15.946a88.01 88.01 0 0 1 0-175.394l-1.322-15.946a103.693 103.693 0 0 0 -67.663 33.064z" fill="#ffffff" data-original="#000000" class=""></path><path d="m383.339 223.7 1.322 15.946a104.011 104.011 0 0 0 0-207.286l-1.322 15.94a88.01 88.01 0 0 1 0 175.394z" fill="#ffffff" data-original="#000000" class=""></path><path d="m64 184h16v16h-16z" fill="#ffffff" data-original="#000000" class=""></path><path d="m64 216h16v16h-16z" fill="#ffffff" data-original="#000000" class=""></path><path d="m80 94a22.025 22.025 0 0 1 22-22h130a8 8 0 0 0 5.657-13.657l-32-32-11.314 11.314 18.344 18.343h-110.687a38.043 38.043 0 0 0 -38 38v74h16z" fill="#ffffff" data-original="#000000" class=""></path><path d="m432 312h16v16h-16z" fill="#ffffff" data-original="#000000" class=""></path><path d="m432 280h16v16h-16z" fill="#ffffff" data-original="#000000" class=""></path><path d="m432 418a22.025 22.025 0 0 1 -22 22h-130a8 8 0 0 0 -5.657 13.657l32 32 11.314-11.314-18.344-18.343h110.687a38.043 38.043 0 0 0 38-38v-74h-16z" fill="#ffffff" data-original="#000000" class=""></path></g></g></svg>