<svg xmlns="http://www.w3.org/2000/svg" version="1.1" xmlns:xlink="http://www.w3.org/1999/xlink" xmlns:svgjs="http://svgjs.com/svgjs" width="512" height="512" x="0" y="0" viewBox="0 0 64 64" style="enable-background:new 0 0 512 512" xml:space="preserve" class=""><g><path xmlns="http://www.w3.org/2000/svg" d="m30 46h-5a1 1 0 0 1 -1-1v-6a1 1 0 0 1 1-1h5a4 4 0 0 1 0 8zm-4-2h4a2 2 0 0 0 0-4h-4z" fill="#ffffff" data-original="#000000" class=""></path><path xmlns="http://www.w3.org/2000/svg" d="m30 52h-5a1 1 0 0 1 -1-1v-6a1 1 0 0 1 1-1h5a4 4 0 0 1 0 8zm-4-2h4a2 2 0 0 0 0-4h-4z" fill="#ffffff" data-original="#000000" class=""></path><path xmlns="http://www.w3.org/2000/svg" d="m26 40a1 1 0 0 1 -1-1v-2a1 1 0 0 1 2 0v2a1 1 0 0 1 -1 1z" fill="#ffffff" data-original="#000000" class=""></path><path xmlns="http://www.w3.org/2000/svg" d="m29 40a1 1 0 0 1 -1-1v-2a1 1 0 0 1 2 0v2a1 1 0 0 1 -1 1z" fill="#ffffff" data-original="#000000" class=""></path><path xmlns="http://www.w3.org/2000/svg" d="m26 54a1 1 0 0 1 -1-1v-2a1 1 0 0 1 2 0v2a1 1 0 0 1 -1 1z" fill="#ffffff" data-original="#000000" class=""></path><path xmlns="http://www.w3.org/2000/svg" d="m29 54a1 1 0 0 1 -1-1v-2a1 1 0 0 1 2 0v2a1 1 0 0 1 -1 1z" fill="#ffffff" data-original="#000000" class=""></path><path xmlns="http://www.w3.org/2000/svg" d="m25 40h-2a1 1 0 0 1 0-2h2a1 1 0 0 1 0 2z" fill="#ffffff" data-original="#000000" class=""></path><path xmlns="http://www.w3.org/2000/svg" d="m25 52h-2a1 1 0 0 1 0-2h2a1 1 0 0 1 0 2z" fill="#ffffff" data-original="#000000" class=""></path><path xmlns="http://www.w3.org/2000/svg" d="m48 62h-33c-6.393 0-12-5.14-12-11v-28a7.008 7.008 0 0 1 7-7h42a7.008 7.008 0 0 1 7 7v6a1 1 0 0 1 -2 0v-6a5.006 5.006 0 0 0 -5-5h-42a5 5 0 0 0 0 10h38a11.013 11.013 0 0 1 11 11v12a11.013 11.013 0 0 1 -11 11zm-43-34.1v23.1c0 5.151 5.279 9 10 9h33a9.011 9.011 0 0 0 9-9v-12a9.011 9.011 0 0 0 -9-9h-38a6.98 6.98 0 0 1 -5-2.1z" fill="#ffffff" data-original="#000000" class=""></path><path xmlns="http://www.w3.org/2000/svg" d="m47 48a3 3 0 1 1 3-3 3 3 0 0 1 -3 3zm0-4a1 1 0 1 0 1 1 1 1 0 0 0 -1-1z" fill="#ffffff" data-original="#000000" class=""></path><path xmlns="http://www.w3.org/2000/svg" d="m53 24h-44a1 1 0 0 1 0-2h44a1 1 0 0 1 0 2z" fill="#ffffff" data-original="#000000" class=""></path><path xmlns="http://www.w3.org/2000/svg" d="m33 20a1 1 0 0 1 -1-1v-10a1 1 0 0 1 2 0v10a1 1 0 0 1 -1 1z" fill="#ffffff" data-original="#000000" class=""></path><path xmlns="http://www.w3.org/2000/svg" d="m33 10a4 4 0 1 1 4-4 4 4 0 0 1 -4 4zm0-6a2 2 0 1 0 2 2 2 2 0 0 0 -2-2z" fill="#ffffff" data-original="#000000" class=""></path><path xmlns="http://www.w3.org/2000/svg" d="m48 12a4 4 0 1 1 4-4 4 4 0 0 1 -4 4zm0-6a2 2 0 1 0 2 2 2 2 0 0 0 -2-2z" fill="#ffffff" data-original="#000000" class=""></path><path xmlns="http://www.w3.org/2000/svg" d="m40 20a1 1 0 0 1 -1-1v-11a1 1 0 0 1 1-1h5a1 1 0 0 1 0 2h-4v10a1 1 0 0 1 -1 1z" fill="#ffffff" data-original="#000000" class=""></path><path xmlns="http://www.w3.org/2000/svg" d="m18 12a4 4 0 1 1 4-4 4 4 0 0 1 -4 4zm0-6a2 2 0 1 0 2 2 2 2 0 0 0 -2-2z" fill="#ffffff" data-original="#000000" class=""></path><path xmlns="http://www.w3.org/2000/svg" d="m26 20a1 1 0 0 1 -1-1v-10h-4a1 1 0 0 1 0-2h5a1 1 0 0 1 1 1v11a1 1 0 0 1 -1 1z" fill="#ffffff" data-original="#000000" class=""></path></g></svg>