<svg xmlns="http://www.w3.org/2000/svg" version="1.1" xmlns:xlink="http://www.w3.org/1999/xlink" xmlns:svgjs="http://svgjs.com/svgjs" width="512" height="512" x="0" y="0" viewBox="0 0 97 97" style="enable-background:new 0 0 512 512" xml:space="preserve" class=""><g><circle xmlns="http://www.w3.org/2000/svg" cx="48.5" cy="48.5" fill="#09be8b" r="48" data-original="#50af00" class=""></circle><path xmlns="http://www.w3.org/2000/svg" d="m52.2 44.9v-8.4h6.8c2 0 3.7-1.7 3.7-3.7s-1.6-3.8-3.7-3.8h-6.8v-.9c0-2-1.7-3.7-3.7-3.7s-3.7 1.7-3.7 3.7v.9c-5.9.5-10.5 5.5-10.5 11.5s4.6 11 10.5 11.5v8.4h-6.8c-2 0-3.7 1.7-3.7 3.7s1.7 3.7 3.7 3.7h6.8v.9c0 2 1.7 3.7 3.7 3.7s3.7-1.7 3.7-3.7v-.9c5.9-.5 10.5-5.5 10.5-11.5s-4.6-10.9-10.5-11.4zm0 15.5v-8.1c1.8.5 3.1 2.1 3.1 4.1 0 1.9-1.3 3.6-3.1 4zm-7.4-23.8v8.1c-1.8-.5-3.1-2.1-3.1-4.1 0-1.9 1.3-3.6 3.1-4z" fill="#ffffff" data-original="#ffffff" class=""></path></g></svg>