<svg xmlns="http://www.w3.org/2000/svg" version="1.1" xmlns:xlink="http://www.w3.org/1999/xlink" xmlns:svgjs="http://svgjs.com/svgjs" width="512" height="512" x="0" y="0" viewBox="0 0 512 512" style="enable-background:new 0 0 512 512" xml:space="preserve" class=""><g><g xmlns="http://www.w3.org/2000/svg"><path d="m136 496a120.155 120.155 0 0 1 -119.768-112.495l-15.97.99c4.431 71.498 64.054 127.505 135.738 127.505s131.307-56.007 135.738-127.5l-15.97-.99a120.155 120.155 0 0 1 -119.768 112.49z" fill="#09be8b" data-original="#000000" class=""></path><path d="m136 240c-71.684 0-131.307 56.007-135.738 127.505l15.97.99a120 120 0 0 1 239.536 0l15.97-.99c-4.431-71.498-64.054-127.505-135.738-127.505z" fill="#09be8b" data-original="#000000" class=""></path><path d="m197.1 302a95.84 95.84 0 0 0 -122.2 0l10.2 12.33a79.836 79.836 0 0 1 101.8 0z" fill="#09be8b" data-original="#000000" class=""></path><path d="m62 314.9a95.84 95.84 0 0 0 0 122.2l12.331-10.2a79.832 79.832 0 0 1 0-101.8z" fill="#09be8b" data-original="#000000" class=""></path><path d="m136 472a96.086 96.086 0 0 0 61.1-22l-10.2-12.33a79.836 79.836 0 0 1 -101.8 0l-10.2 12.33a96.086 96.086 0 0 0 61.1 22z" fill="#09be8b" data-original="#000000" class=""></path><path d="m210 437.1a95.84 95.84 0 0 0 0-122.2l-12.331 10.2a79.832 79.832 0 0 1 0 101.8z" fill="#09be8b" data-original="#000000" class=""></path><path d="m140.116 321.14a8 8 0 0 0 -8.232 0l-40 24a8 8 0 0 0 -3.884 6.86v48a8 8 0 0 0 3.884 6.86l40 24a8 8 0 0 0 8.232 0l40-24a8 8 0 0 0 3.884-6.86v-48a8 8 0 0 0 -3.884-6.86zm27.884 74.331-32 19.2-32-19.2v-38.942l32-19.2 32 19.2z" fill="#09be8b" data-original="#000000" class=""></path><path d="m269.91 221.009 12.476-10.017a118.6 118.6 0 0 1 -26.386-74.992 119.945 119.945 0 0 1 187.489-99.174l9.023-13.214a135.142 135.142 0 0 0 -76.512-23.612c-74.991 0-136 61.009-136 136a136.267 136.267 0 0 0 29.91 85.009z" fill="#09be8b" data-original="#000000" class=""></path><path d="m474.675 42.5-11.612 11a119.938 119.938 0 0 1 -169.563 169.564l-11 11.611a135.388 135.388 0 0 0 93.5 37.325c74.991 0 136-61.009 136-136a135.388 135.388 0 0 0 -37.325-93.5z" fill="#09be8b" data-original="#000000" class=""></path><path d="m396 168h-68v16h40v16h16v-16h12a28 28 0 0 0 0-56h-40a12 12 0 0 1 0-24h68v-16h-40v-16h-16v16h-12a28 28 0 0 0 0 56h40a12 12 0 0 1 0 24z" fill="#09be8b" data-original="#000000" class=""></path><path d="m376 40a96.088 96.088 0 0 0 -61.1 22l10.2 12.331a79.832 79.832 0 0 1 101.8 0l10.2-12.331a96.088 96.088 0 0 0 -61.1-22z" fill="#09be8b" data-original="#000000" class=""></path><path d="m302 74.9a95.84 95.84 0 0 0 0 122.2l12.331-10.2a79.832 79.832 0 0 1 0-101.8z" fill="#09be8b" data-original="#000000" class=""></path><path d="m314.9 210a95.84 95.84 0 0 0 122.2 0l-10.2-12.331a79.832 79.832 0 0 1 -101.8 0z" fill="#09be8b" data-original="#000000" class=""></path><path d="m450 197.1a95.84 95.84 0 0 0 0-122.2l-12.332 10.2a79.832 79.832 0 0 1 0 101.8z" fill="#09be8b" data-original="#000000" class=""></path><path d="m64 184h16v16h-16z" fill="#09be8b" data-original="#000000" class=""></path><path d="m64 216h16v16h-16z" fill="#09be8b" data-original="#000000" class=""></path><path d="m80 94a22.025 22.025 0 0 1 22-22h130a8 8 0 0 0 5.657-13.657l-32-32-11.314 11.314 18.343 18.343h-110.686a38.043 38.043 0 0 0 -38 38v74h16z" fill="#09be8b" data-original="#000000" class=""></path><path d="m432 312h16v16h-16z" fill="#09be8b" data-original="#000000" class=""></path><path d="m432 280h16v16h-16z" fill="#09be8b" data-original="#000000" class=""></path><path d="m432 418a22.025 22.025 0 0 1 -22 22h-130a8 8 0 0 0 -5.657 13.657l32 32 11.314-11.314-18.343-18.343h110.686a38.043 38.043 0 0 0 38-38v-74h-16z" fill="#09be8b" data-original="#000000" class=""></path></g></g></svg>