<svg xmlns="http://www.w3.org/2000/svg" version="1.1" xmlns:xlink="http://www.w3.org/1999/xlink" xmlns:svgjs="http://svgjs.com/svgjs" width="512" height="512" x="0" y="0" viewBox="0 0 64 64" style="enable-background:new 0 0 512 512" xml:space="preserve" class=""><g><path xmlns="http://www.w3.org/2000/svg" d="m55.49 8.51a12 12 0 0 0 -17 0l1.42 1.42a10 10 0 1 1 0 14.14l-1.42 1.42a12 12 0 1 0 17-17z" fill="#09be8b" data-original="#000000" class=""></path><path xmlns="http://www.w3.org/2000/svg" d="m58.31 5.69a16 16 0 1 0 -3.31 25.17v1.14a22.81 22.81 0 0 1 -1.61 8.39l-2.17-1-.86 1.8 2.21 1.07a23.08 23.08 0 0 1 -10.75 10.54l.86 1.81a25.13 25.13 0 0 0 14.32-22.61c0-.81 0-1.62-.13-2.42a15.58 15.58 0 0 0 1.44-1.27 16 16 0 0 0 0-22.62zm-21.21 21.21a14 14 0 1 1 19.8 0 14 14 0 0 1 -19.8 0z" fill="#09be8b" data-original="#000000" class=""></path><path xmlns="http://www.w3.org/2000/svg" d="m48.5 21h-3a1.5 1.5 0 0 1 -1.5-1.5h-2a3.5 3.5 0 0 0 3.5 3.5h.5v2h2v-2h.5a3.5 3.5 0 0 0 0-7h-3a1.5 1.5 0 0 1 0-3h3a1.5 1.5 0 0 1 1.5 1.5h2a3.5 3.5 0 0 0 -3.5-3.5h-.5v-2h-2v2h-.5a3.5 3.5 0 0 0 0 7h3a1.5 1.5 0 0 1 0 3z" fill="#09be8b" data-original="#000000" class=""></path><circle xmlns="http://www.w3.org/2000/svg" cx="36" cy="17" r="1" fill="#09be8b" data-original="#000000" class=""></circle><circle xmlns="http://www.w3.org/2000/svg" cx="39" cy="17" r="1" fill="#09be8b" data-original="#000000" class=""></circle><path xmlns="http://www.w3.org/2000/svg" d="m38.48 51.91h2v3.18h-2z" transform="matrix(.944 -.329 .329 .944 -15.38 15.94)" fill="#09be8b" data-original="#000000" class=""></path><path xmlns="http://www.w3.org/2000/svg" d="m19.55 26.89 10.45 5.23a2 2 0 0 0 1.62 1.88l5.38 15.33 1.89-.66-5.38-15.37a2 2 0 0 0 -2.61-3l-10.45-5.19z" fill="#09be8b" data-original="#000000" class=""></path><path xmlns="http://www.w3.org/2000/svg" d="m24.42 8.98h2v3.13h-2z" transform="matrix(.929 -.37 .37 .929 -2.1 10.16)" fill="#09be8b" data-original="#000000" class=""></path><path xmlns="http://www.w3.org/2000/svg" d="m19 42v-2h-2v2h-1v-2h-2v2h-4v2h2v6h-2v2h4v2h2v-2h1v2h2v-2a3 3 0 0 0 3-3 3 3 0 0 0 -.78-2 3 3 0 0 0 .78-2 3 3 0 0 0 -3-3zm0 8h-5v-2h5a1 1 0 0 1 0 2zm0-4h-5v-2h5a1 1 0 0 1 0 2z" fill="#09be8b" data-original="#000000" class=""></path><path xmlns="http://www.w3.org/2000/svg" d="m5.69 58.31a16 16 0 1 0 3.31-25.17c0-.38 0-.76 0-1.14a22.76 22.76 0 0 1 2-9.37l2.53 1.26.9-1.78-2.53-1.27a23 23 0 0 1 10.28-9.64l-.86-1.81a25.13 25.13 0 0 0 -14.32 22.61c0 .81 0 1.62.13 2.42a15.58 15.58 0 0 0 -1.44 1.27 16 16 0 0 0 0 22.62zm5.07 1.21a13.76 13.76 0 0 1 -3.66-2.62 14.32 14.32 0 0 1 -2.6-3.61l1.86-.77a12 12 0 0 0 5.17 5.15zm19.52-8.13-2.73-1.12-.76 1.84 2.73 1.13a13.76 13.76 0 0 1 -2.62 3.66 14.32 14.32 0 0 1 -3.61 2.6l-1.14-2.73-1.84.76 1.13 2.73a14.11 14.11 0 0 1 -8.83 0l.76-1.84a12.14 12.14 0 0 0 3.63.58v-2a10 10 0 1 1 10-10h2a12 12 0 0 0 -.58-3.67l1.84-.77a14.11 14.11 0 0 1 .02 8.83zm-7-16.91a13.76 13.76 0 0 1 3.62 2.62 14.32 14.32 0 0 1 2.6 3.61l-1.86.77a12 12 0 0 0 -5.17-5.15zm-6.28-1.48a14.06 14.06 0 0 1 4.39.71l-.76 1.84a12.14 12.14 0 0 0 -3.63-.55 12 12 0 0 0 -3.67.58l-.77-1.84a14.05 14.05 0 0 1 4.44-.74zm-9.9 4.1a14.32 14.32 0 0 1 3.61-2.6l.77 1.86a12 12 0 0 0 -5.15 5.17l-1.85-.77a13.76 13.76 0 0 1 2.62-3.66zm-1.54 6.27a12.14 12.14 0 0 0 -.56 3.63 12 12 0 0 0 .58 3.67l-1.84.77a14.11 14.11 0 0 1 0-8.83z" fill="#09be8b" data-original="#000000" class=""></path><circle xmlns="http://www.w3.org/2000/svg" cx="25" cy="55" r="1" fill="#09be8b" data-original="#000000" class=""></circle></g></svg>