<svg xmlns="http://www.w3.org/2000/svg" version="1.1" xmlns:xlink="http://www.w3.org/1999/xlink" xmlns:svgjs="http://svgjs.com/svgjs" width="512" height="512" x="0" y="0" viewBox="0 0 24 24" style="enable-background:new 0 0 512 512" xml:space="preserve" class=""><g><path xmlns="http://www.w3.org/2000/svg" d="M11.5,21.25a.25.25,0,0,0,.25-.25v-.75H13.5a1.25,1.25,0,0,0,0-2.5h-.0264A1.2229,1.2229,0,0,0,13.75,17a1.2511,1.2511,0,0,0-1.25-1.25h-.75V15a.25.25,0,0,0-.5,0v.75h-.5V15a.25.25,0,0,0-.5,0v.75H9.5a.25.25,0,0,0,0,.5h.75v1.5H9.5a.25.25,0,0,0,0,.5h.75v1.5H9.5a.25.25,0,0,0,0,.5h.75V21a.25.25,0,0,0,.5,0v-.75h.5V21A.25.25,0,0,0,11.5,21.25Zm-.75-5H12.5a.75.75,0,0,1,0,1.5H10.75Zm0,2H13.5a.75.75,0,0,1,0,1.5H10.75Z" fill="#09be8b" data-original="#000000" class=""></path><path xmlns="http://www.w3.org/2000/svg" d="M23,6.25A.25.25,0,0,0,23.25,6V3A2.2528,2.2528,0,0,0,21,.75H17A2.2528,2.2528,0,0,0,14.75,3V4.75H9.25V3A2.2528,2.2528,0,0,0,7,.75H6a.25.25,0,0,0,0,.5H7A1.7522,1.7522,0,0,1,8.75,3V7A1.7522,1.7522,0,0,1,7,8.75H3A1.7522,1.7522,0,0,1,1.25,7V3A1.7522,1.7522,0,0,1,3,1.25H5a.25.25,0,0,0,0-.5H3A2.2528,2.2528,0,0,0,.75,3V7a2.2454,2.2454,0,0,0,2,2.2247v1.5758a1.2337,1.2337,0,0,0-1,1.2,1.25,1.25,0,0,0,2.5,0,1.2336,1.2336,0,0,0-1-1.2V9.25h2.5v1.9214a1.7367,1.7367,0,0,1-.5127,1.2378l-.8281.8281A2.2657,2.2657,0,0,0,3.75,14.8281v.9724a1.2337,1.2337,0,0,0-1,1.2,1.25,1.25,0,0,0,2.5,0,1.2336,1.2336,0,0,0-1-1.2v-.9724a1.76,1.76,0,0,1,.5127-1.2373l.8281-.8281A2.2364,2.2364,0,0,0,6.25,11.1714V9.25H7A2.2528,2.2528,0,0,0,9.25,7V5.25h2.5v7.5253A5.24,5.24,0,1,0,16.2,21.15a.2507.2507,0,0,0-.05-.3506.2538.2538,0,0,0-.3506.05,4.73,4.73,0,1,1,.5547-.95.2506.2506,0,1,0,.459.2012A5.2374,5.2374,0,0,0,12.25,12.7753V5.25h2.5V7A2.2528,2.2528,0,0,0,17,9.25h.75v1.55a1.2337,1.2337,0,0,0-1,1.2,1.25,1.25,0,0,0,2.5,0,1.2336,1.2336,0,0,0-1-1.2V9.25h1.5v.9214a2.2364,2.2364,0,0,0,.6592,1.5913l.8281.8281a1.76,1.76,0,0,1,.5127,1.2373v2.9724a1.2337,1.2337,0,0,0-1,1.2,1.25,1.25,0,0,0,2.5,0,1.2336,1.2336,0,0,0-1-1.2V13.8281a2.2657,2.2657,0,0,0-.6592-1.5908l-.8281-.8281a1.7367,1.7367,0,0,1-.5127-1.2378V9.25H21A2.2528,2.2528,0,0,0,23.25,7a.25.25,0,0,0-.5,0A1.7522,1.7522,0,0,1,21,8.75H17A1.7522,1.7522,0,0,1,15.25,7V3A1.7522,1.7522,0,0,1,17,1.25h4A1.7522,1.7522,0,0,1,22.75,3V6A.25.25,0,0,0,23,6.25ZM4.75,17A.75.75,0,1,1,4,16.25.7514.7514,0,0,1,4.75,17Zm-1-5A.75.75,0,1,1,3,11.25.7511.7511,0,0,1,3.75,12Zm15,0a.75.75,0,1,1-.75-.75A.7511.7511,0,0,1,18.75,12Zm4,6a.75.75,0,1,1-.75-.75A.7514.7514,0,0,1,22.75,18Z" fill="#09be8b" data-original="#000000" class=""></path><path xmlns="http://www.w3.org/2000/svg" d="M3.75,5A1.25,1.25,0,1,0,5,3.75,1.2511,1.2511,0,0,0,3.75,5Zm2,0A.75.75,0,1,1,5,4.25.7511.7511,0,0,1,5.75,5Z" fill="#09be8b" data-original="#000000" class=""></path><path xmlns="http://www.w3.org/2000/svg" d="M17.75,5A1.25,1.25,0,1,0,19,3.75,1.2511,1.2511,0,0,0,17.75,5Zm2,0A.75.75,0,1,1,19,4.25.7511.7511,0,0,1,19.75,5Z" fill="#09be8b" data-original="#000000" class=""></path></g></svg>