<svg xmlns="http://www.w3.org/2000/svg" version="1.1" xmlns:xlink="http://www.w3.org/1999/xlink" xmlns:svgjs="http://svgjs.com/svgjs" width="512" height="512" x="0" y="0" viewBox="0 0 60 60" style="enable-background:new 0 0 512 512" xml:space="preserve" class=""><g><path xmlns="http://www.w3.org/2000/svg" d="M58,32.184V21a3,3,0,0,0-3-3V13a3,3,0,0,0-3-3H41.407a13.987,13.987,0,0,0-26.814,0H5a4.995,4.995,0,0,0-5,5V55a5.006,5.006,0,0,0,5,5H55a3,3,0,0,0,3-3V45.816A3,3,0,0,0,60,43V35A3,3,0,0,0,58,32.184ZM53,13v5H41.413a13.478,13.478,0,0,0,.428-6H52A1,1,0,0,1,53,13ZM16.323,11.229A12,12,0,1,1,39.3,18H16.7a11.867,11.867,0,0,1-.379-6.771ZM2.872,12.882A3.018,3.018,0,0,1,5,12h9.159a13.478,13.478,0,0,0,.428,6H5a3,3,0,0,1-2.128-5.118ZM55,58H5a3,3,0,0,1-3-3V18.974A4.948,4.948,0,0,0,5,20H55a1,1,0,0,1,1,1V32H48a4,4,0,0,0-4,4v6a4,4,0,0,0,4,4h8V57A1,1,0,0,1,55,58Zm3-15a1,1,0,0,1-1,1H48a2,2,0,0,1-2-2V36a2,2,0,0,1,2-2h9a1,1,0,0,1,1,1Z" fill="#ffffff" data-original="#000000" class=""></path><path xmlns="http://www.w3.org/2000/svg" d="M51,36a3,3,0,1,0,3,3A3,3,0,0,0,51,36Zm0,4a1,1,0,1,1,1-1A1,1,0,0,1,51,40Z" fill="#ffffff" data-original="#000000" class=""></path><path xmlns="http://www.w3.org/2000/svg" d="M25,22A17,17,0,1,0,42,39,17.019,17.019,0,0,0,25,22Zm0,32A15,15,0,1,1,40,39,15.017,15.017,0,0,1,25,54Z" fill="#ffffff" data-original="#000000" class=""></path><path xmlns="http://www.w3.org/2000/svg" d="M26.314,26.716a1.62,1.62,0,0,0-2.628,0L17.24,36.8a1.512,1.512,0,0,0-.2,1.172,1.551,1.551,0,0,0,.711.966L24.2,42.78a1.571,1.571,0,0,0,1.605,0l6.444-3.841a1.549,1.549,0,0,0,.712-.966,1.512,1.512,0,0,0-.2-1.172Zm3.357,8.965L26,34.307V29.938ZM24,40.333l-4.01-2.39,4.01-1.5Zm2-3.891,4.01,1.5L26,40.333Zm-2-6.5v4.369l-3.671,1.374Z" fill="#ffffff" data-original="#000000" class=""></path><path xmlns="http://www.w3.org/2000/svg" d="M29.8,42.212l-3.813,2.361a1.926,1.926,0,0,1-1.978,0L20.2,42.212a1.391,1.391,0,0,0-1.853,2.007l5.2,7.049a1.806,1.806,0,0,0,2.905,0l5.2-7.048A1.391,1.391,0,0,0,29.8,42.212ZM25,49.867l-3.167-4.289,1.132.7a3.949,3.949,0,0,0,4.075,0l1.127-.7Z" fill="#ffffff" data-original="#000000" class=""></path></g></svg>