<svg xmlns="http://www.w3.org/2000/svg" version="1.1" xmlns:xlink="http://www.w3.org/1999/xlink" xmlns:svgjs="http://svgjs.com/svgjs" width="512" height="512" x="0" y="0" viewBox="0 0 468 468" style="enable-background:new 0 0 512 512" xml:space="preserve" class=""><g><g xmlns="http://www.w3.org/2000/svg"><g><g><g id="XMLID_34_"><path d="m240.85 245.263c-.005 0-.008 0-.012 0-26.2-.007-47.522-22.669-47.529-50.517-.007-26.253 20.37-50.499 47.51-50.499 26.2.007 47.522 22.669 47.529 50.517.007 26.242-20.361 50.499-47.498 50.499zm-.043-85.016c-18.379 0-31.503 17.013-31.498 34.495.005 19.03 14.151 34.516 31.533 34.521 18.384 0 31.511-17.006 31.506-34.495-.005-19.03-14.151-34.516-31.533-34.521-.003 0-.005 0-.008 0z" fill="#ffffff" data-original="#000000" class=""></path></g><g><path d="m153.518 217.039c-12.683 0-23-10.323-23-23.012s10.318-23.011 23-23.011 23 10.322 23 23.011-10.318 23.012-23 23.012zm0-30.022c-3.86 0-7 3.145-7 7.011s3.141 7.012 7 7.012 7-3.146 7-7.012-3.14-7.011-7-7.011z" fill="#ffffff" data-original="#000000" class=""></path></g><g><path d="m329.627 216.84c-12.682 0-23-10.322-23-23.011s10.318-23.012 23-23.012c12.683 0 23 10.323 23 23.012s-10.317 23.011-23 23.011zm0-30.023c-3.86 0-7 3.146-7 7.012s3.14 7.011 7 7.011 7-3.145 7-7.011-3.14-7.012-7-7.012z" fill="#ffffff" data-original="#000000" class=""></path></g></g><g><g><g><path d="m143.003 292.816-9.45-.003c-6.569-33.446-32.013-60.356-65.495-67.487l-.012-34.353c-.001-4.417-3.583-7.973-8-7.973-.001 0-.002 0-.003 0-4.418 0-7.999 3.561-7.997 7.979l.039 109.821c.001 4.416 3.581 8.081 7.997 8.083l82.915.117h.003c4.417 0 7.999-3.672 8-8.089.001-4.418-3.579-8.093-7.997-8.095zm-74.939-51.087c24.884 6.341 43.131 26.317 49.103 51.078l-49.085-.019z" fill="#ffffff" data-original="#000000" class=""></path><path d="m431.942 86.822c-.001-4.416-3.581-7.873-7.998-7.874l-227.985.052c-.001 0-.001 0-.002 0-4.417 0-7.999 3.457-8 7.874-.001 4.419 3.579 7.94 7.998 7.941l154.007.017c7.139 33.334 33.656 58.414 66.005 67.54l.026 80.566c.001 4.417 3.583 8.061 8 8.061h.002c4.418 0 7.999-3.651 7.998-8.07zm-65.524 7.985 49.527.016.017 50.823c-23.649-8.082-43.115-26.282-49.544-50.839z" fill="#ffffff" data-original="#000000" class=""></path></g><path d="m468 296c0-15.464-12.536-28-28-28h-245c-15.464 0-28 12.536-28 28v144c0 15.464 12.536 28 28 28h245c15.464 0 28-12.536 28-28zm-273-12h245c6.617 0 12 5.248 12 11.865v21.135h-269v-21.135c0-6.617 5.383-11.865 12-11.865zm245 168h-245c-6.617 0-12-5.383-12-12v-107h269v107c0 6.617-5.383 12-12 12z" fill="#ffffff" data-original="#000000" class=""></path></g><g><path d="m414.958 377.935h-117.958c-4.418 0-8-3.582-8-8s3.582-8 8-8h117.958c4.418 0 8 3.582 8 8s-3.581 8-8 8z" fill="#ffffff" data-original="#000000" class=""></path></g><g><path d="m414.958 421.967h-117.958c-4.418 0-8-3.582-8-8s3.582-8 8-8h117.958c4.418 0 8 3.582 8 8s-3.581 8-8 8z" fill="#ffffff" data-original="#000000" class=""></path></g></g><g><g><path d="m85 170.112c-46.869 0-85-38.156-85-85.056s38.131-85.056 85-85.056 85 38.156 85 85.057c0 46.899-38.131 85.055-85 85.055zm0-154.112c-38.047 0-69 30.979-69 69.057 0 38.077 30.953 69.056 69 69.056s69-30.979 69-69.056c0-38.078-30.953-69.057-69-69.057z" fill="#ffffff" data-original="#000000" class=""></path></g><g><path d="m90.278 76.199c-10.722-4.448-13.823-7.053-13.823-11.613 0-3.772 2.712-7.803 10.325-7.803 6.494.453 12.385 2.372 17.672 5.758l5.433-14.384c-5.198-3.288-10.956-5.305-17.275-6.053v-12.57h-14.202v13.466c-11.857 2.932-19.208 11.766-19.208 23.116 0 14.037 11.037 20.311 22.959 24.999 8.81 3.582 12.403 7.129 12.403 12.244 0 5.583-4.814 9.333-11.979 9.333-7.541-.483-14.184-2.883-19.928-7.202l-5.22 14.613c5.723 4.391 12.417 6.865 20.083 7.424v13.052h14.329v-13.855c12.22-3.059 20.098-12.552 20.098-24.258 0-12.2-6.481-20.056-21.667-26.267z" fill="#ffffff" data-original="#000000" class=""></path></g></g></g><g><g><path d="m62.578 379.968c-4.418 0-8-3.582-8-8v-12.047c0-4.418 3.582-8 8-8s8 3.582 8 8v12.047c0 4.418-3.582 8-8 8z" fill="#ffffff" data-original="#000000" class=""></path></g><g><path d="m62.578 431.967c-4.418 0-8-3.582-8-8v-12.048c0-4.418 3.582-8 8-8s8 3.582 8 8v12.048c0 4.418-3.582 8-8 8z" fill="#ffffff" data-original="#000000" class=""></path></g><g><path d="m94.69 399.943h-12.081c-4.418 0-8-3.582-8-8s3.582-8 8-8h12.081c4.418 0 8 3.582 8 8s-3.582 8-8 8z" fill="#ffffff" data-original="#000000" class=""></path></g><g><path d="m42.546 399.943h-12.08c-4.418 0-8-3.582-8-8s3.582-8 8-8h12.081c4.418 0 8 3.582 8 8s-3.582 8-8.001 8z" fill="#ffffff" data-original="#000000" class=""></path></g></g></g></g></svg>