<svg xmlns="http://www.w3.org/2000/svg" version="1.1" xmlns:xlink="http://www.w3.org/1999/xlink" xmlns:svgjs="http://svgjs.com/svgjs" width="512" height="512" x="0" y="0" viewBox="0 0 512 512" style="enable-background:new 0 0 512 512" xml:space="preserve" class=""><g><g xmlns="http://www.w3.org/2000/svg"><path d="m480.23 171.98c0-21.149-8.21-41.123-22.79-56.065 5.45-5.736 8.806-13.481 8.806-21.999 0-17.629-14.342-31.971-31.971-31.971h-7.428v-7.428c0-17.629-14.342-31.971-31.971-31.971-11.301 0-21.244 5.899-26.931 14.775-4.368-4.708-9.108-9.062-14.198-12.996-3.277-2.533-7.988-1.929-10.521 1.348s-1.93 7.988 1.348 10.521c6.869 5.309 13.019 11.482 18.331 18.359v7.392h-7.428c-17.629 0-31.971 14.342-31.971 31.971s14.342 31.971 31.971 31.971h7.428v7.428c0 10.153 4.763 19.208 12.165 25.069-4.936 10.896-11.852 20.974-20.283 29.524h-53.992c3.137-10.648 4.725-21.688 4.725-32.948 0-21.066-5.679-41.702-16.419-59.672-16.489-27.643-43.743-47.147-74.704-54.087 18.555-16.787 42.709-26.201 68.083-26.201 13.092 0 25.83 2.455 37.859 7.298 3.843 1.546 8.212-.314 9.758-4.157 1.547-3.843-.314-8.211-4.157-9.758-13.817-5.563-28.44-8.383-43.46-8.383-33.172 0-64.522 14.021-86.632 38.594-2.303-.137-4.614-.214-6.908-.214-20.548 0-40.752 5.422-58.428 15.679-15.9 9.227-29.461 22.165-39.448 37.571h-3.654c-30.68 0-55.64 24.96-55.64 55.64h.004l-.001 309.09c0 30.68 24.96 55.64 55.64 55.64h312.464c44.304 0 80.348-36.044 80.348-80.348l.001-163.392h.004zm-109.825-61.093h-14.928c-9.358 0-16.971-7.613-16.971-16.971s7.613-16.971 16.971-16.971h14.928c4.142 0 7.5-3.358 7.5-7.5v-14.928c0-9.358 7.613-16.971 16.971-16.971s16.971 7.613 16.971 16.971v14.928c0 4.142 3.358 7.5 7.5 7.5h14.928c9.358 0 16.971 7.613 16.971 16.971s-7.613 16.971-16.971 16.971h-14.928c-4.142 0-7.5 3.358-7.5 7.5v14.928c0 9.358-7.613 16.971-16.971 16.971s-16.971-7.613-16.971-16.971v-14.928c0-4.142-3.358-7.5-7.5-7.5zm18.278 53.791c2.004.395 4.074.607 6.193.607 17.629 0 31.971-14.342 31.971-31.971v-7.428h7.428c3.56 0 6.981-.594 10.182-1.672 13.247 12.354 20.773 29.518 20.773 47.765v49.621c-14.589-20.376-38.437-33.692-65.352-33.692h-25.218c5.556-7.18 10.282-14.998 14.023-23.23zm-199.743-111.298c3.123 0 6.283.147 9.406.439 32.159 2.946 61.271 21.321 77.876 49.159 9.354 15.651 14.298 33.626 14.298 51.982 0 11.32-1.838 22.38-5.465 32.948h-52.927l5.693-8.201c4.738-6.825 5.29-15.638 1.438-23-3.852-7.364-11.408-11.938-19.719-11.938h-5.08v-51.059c0-7.853-4.807-14.55-12.246-17.062s-15.326-.101-20.092 6.15l-41.49 54.51c-5.156 6.775-6.01 15.722-2.229 23.351 3.782 7.631 11.421 12.371 19.938 12.371h14.22v14.878h-79.736c-3.627-10.569-5.465-21.628-5.465-32.948 0-18.357 4.944-36.332 14.301-51.987 18.254-30.59 51.697-49.593 87.279-49.593zm-1.38 134.528v-22.378c0-4.142-3.358-7.5-7.5-7.5h-21.72c-2.817 0-5.246-1.507-6.498-4.032-1.25-2.522-.979-5.366.726-7.605l41.486-54.505c1.142-1.498 2.597-1.287 3.361-1.029s2.045.971 2.045 2.851v58.56c0 4.142 3.358 7.5 7.5 7.5h12.58c3.965 0 5.816 2.721 6.428 3.891.612 1.169 1.79 4.239-.469 7.492l-11.632 16.755zm-104.841-80.999c-6.796 15.015-10.359 31.396-10.359 48.051 0 10.75 1.453 21.298 4.314 31.497-17.212-4.723-29.9-20.498-29.9-39.189 0-.017-.002-.034-.003-.051.027-20.798 15.759-37.976 35.948-40.308zm104.949 337.032-30.332-30.341c3.602-2.481 6.726-5.606 9.206-9.208l34.441 34.442c1.227 1.227 1.903 2.86 1.903 4.598v53.568h-13.022v-47.757c0-1.989-.79-3.896-2.196-5.302zm-50.491-39.069c-11.377 0-20.633-9.256-20.633-20.633s9.256-20.633 20.633-20.633 20.633 9.256 20.633 20.633-9.256 20.633-20.633 20.633zm203.944-27.596-30.33 30.339c-1.406 1.406-2.196 3.314-2.196 5.302v84.083h-13.023v-89.895c0-1.738.676-3.371 1.903-4.598l34.438-34.438c2.481 3.602 5.605 6.727 9.208 9.207zm-.477-29.362c0-11.377 9.256-20.633 20.633-20.633s20.633 9.256 20.633 20.633-9.256 20.633-20.633 20.633-20.633-9.257-20.633-20.633zm124.581 83.738c0 36.033-29.315 65.348-65.348 65.348h-76.282v-80.977l32.81-32.819c1.594.219 3.219.342 4.872.342 19.648 0 35.633-15.985 35.633-35.633s-15.985-35.633-35.633-35.633-35.633 15.985-35.633 35.633c0 1.653.122 3.277.341 4.87l-39.116 39.117c-4.06 4.06-6.296 9.46-6.296 15.205v89.895h-9.826v-133.06c0-5.745-2.236-11.145-6.296-15.205l-21.528-21.528c.219-1.592.341-3.215.341-4.866 0-19.648-15.984-35.633-35.632-35.633s-35.633 15.985-35.633 35.633 15.985 35.633 35.633 35.633c1.651 0 3.274-.122 4.866-.341l15.224 15.224v13.303c0 4.142 3.358 7.5 7.5 7.5s7.5-3.358 7.5-7.5v-16.41c0-1.989-.79-3.897-2.197-5.303l-12.741-12.741c3.605-2.482 6.731-5.608 9.212-9.213l16.848 16.848c1.227 1.227 1.903 2.86 1.903 4.598v133.061h-13.027v-80.86c0-4.142-3.358-7.5-7.5-7.5s-7.5 3.358-7.5 7.5v80.86h-9.833v-53.569c0-5.745-2.236-11.145-6.296-15.205l-39.122-39.122c.218-1.592.341-3.214.341-4.866 0-19.648-15.985-35.633-35.633-35.633s-35.633 15.985-35.633 35.633 15.985 35.633 35.633 35.633c1.655 0 3.281-.123 4.877-.342l32.81 32.819v44.652h-87.451c-22.409 0-40.64-18.231-40.64-40.64l.001-271.127c10.162 10.871 24.621 17.675 40.64 17.675h312.464c36.033 0 65.348 29.315 65.348 65.348zm-257.595-88.679c-11.377 0-20.633-9.256-20.633-20.633s9.256-20.633 20.633-20.633c11.376 0 20.632 9.256 20.632 20.633s-9.256 20.633-20.632 20.633z" fill="#ffffff" data-original="#000000" class=""></path></g></g></svg>