<svg xmlns="http://www.w3.org/2000/svg" version="1.1" xmlns:xlink="http://www.w3.org/1999/xlink" xmlns:svgjs="http://svgjs.com/svgjs" width="512" height="512" x="0" y="0" viewBox="0 0 512 512" style="enable-background:new 0 0 512 512" xml:space="preserve" class=""><g><g xmlns="http://www.w3.org/2000/svg"><path d="m193.875 46.064c-4.142 0-7.5-3.358-7.5-7.5 0-4.142 3.358-7.5 7.5-7.5 4.142 0 7.5 3.358 7.5 7.5 0 4.142-3.358 7.5-7.5 7.5z" fill="#ffffff" data-original="#000000" class=""></path><g><path d="m224.937 480.936c4.142 0 7.5-3.358 7.5-7.5s-3.358-7.5-7.5-7.5h-62.125c-4.142 0-7.5 3.358-7.5 7.5s3.358 7.5 7.5 7.5z" fill="#ffffff" data-original="#000000" class=""></path><path d="m201.375 253.48v-44.073c0-2.508-1.253-4.85-3.34-6.24l-23.297-15.531c-1.232-.821-2.68-1.26-4.16-1.26h-46.593c-1.48 0-2.928.438-4.16 1.26l-23.297 15.531c-2.086 1.391-3.34 3.732-3.34 6.24v44.073c0 32.61 20.786 61.448 51.722 71.76 1.581.513 3.162.513 4.743 0 30.937-10.312 51.722-39.151 51.722-71.76zm-54.094 56.685c-23.486-8.916-39.093-31.384-39.093-56.685v-40.059l18.067-12.045h42.052l18.068 12.045v40.059c0 25.3-15.607 47.769-39.094 56.685z" fill="#ffffff" data-original="#000000" class=""></path><path d="m171.562 232.788c-3.284-2.526-7.993-1.911-10.517 1.374l-18.678 24.29-9.49-9.49c-2.929-2.929-7.678-2.929-10.606 0-2.929 2.929-2.929 7.678 0 10.606l15.531 15.531c3.172 3.172 8.465 2.888 11.249-.731l23.885-31.062c2.524-3.285 1.909-7.993-1.374-10.518z" fill="#ffffff" data-original="#000000" class=""></path><path d="m473.44 262.69c4.142 0 7.5-3.358 7.5-7.5v-80.38c0-10.752-8.748-19.5-19.5-19.5h-104.75v-121.29c0-18.528-15.482-34.02-34.02-34.02h-112.45c-4.142 0-7.5 3.358-7.5 7.5s3.358 7.5 7.5 7.5h112.45c10.476 0 19.02 9.06 19.02 19.02v121.29h-16.07v-116.75c0-4.142-3.358-7.5-7.5-7.5h-77.65c-14.038 1.32-21.715 9-23.03 23.04 0 4.428-3.602 8.03-8.03 8.03h-31.07c-4.892-.461-7.569-3.137-8.03-8.03 0-12.704-10.332-23.04-23.03-23.04h-77.65c-4.142 0-7.5 3.358-7.5 7.5v403.81c0 4.142 3.358 7.5 7.5 7.5h61.31c4.142 0 7.5-3.358 7.5-7.5s-3.358-7.5-7.5-7.5h-53.81v-388.81h70.15c4.428 0 8.03 3.607 8.03 8.04 1.319 14.034 8.995 21.711 23.03 23.03h31.07c12.699 0 23.03-10.331 23.03-23.03.457-4.899 3.134-7.579 8.03-8.04h70.15v109.25h-78.183v-23.559c0-4.142-3.358-7.5-7.5-7.5s-7.5 3.358-7.5 7.5v248.498c0 4.142 3.358 7.5 7.5 7.5s7.5-3.358 7.5-7.5v-23.559h78.183v78.18h-147c-4.142 0-7.5 3.358-7.5 7.5s3.358 7.5 7.5 7.5h154.5c4.142 0 7.5-3.358 7.5-7.5v-85.68h16.07v121.29c0 10.48-9.059 19.02-19.02 19.02h-257.59c-10.479 0-19.02-9.059-19.02-19.02v-443.96c0-10.479 9.059-19.02 19.02-19.02h112.45c4.142 0 7.5-3.358 7.5-7.5s-3.358-7.5-7.5-7.5h-112.45c-18.553 0-34.02 15.475-34.02 34.02v443.96c0 18.528 15.482 34.02 34.02 34.02h257.59c18.553 0 34.02-15.475 34.02-34.02v-121.29h104.75c10.752 0 19.5-8.748 19.5-19.5v-49.32c0-4.142-3.358-7.5-7.5-7.5s-7.5 3.358-7.5 7.5v49.32c0 2.481-2.019 4.5-4.5 4.5h-229v-109.252h233.5v22.752c0 4.142 3.358 7.5 7.5 7.5zm-12-92.38c2.481 0 4.5 2.019 4.5 4.5v11.566h-233.5v-16.066zm-229 47.128v-16.062h233.5v16.062z" fill="#ffffff" data-original="#000000" class=""></path><path d="m380.249 248.5c-4.142 0-7.5 3.358-7.5 7.5v31.062c0 4.142 3.358 7.5 7.5 7.5h62.125c4.142 0 7.5-3.358 7.5-7.5v-31.062c0-4.142-3.358-7.5-7.5-7.5zm54.624 31.062h-47.125v-16.062h47.125z" fill="#ffffff" data-original="#000000" class=""></path></g></g></g></svg>