<svg xmlns="http://www.w3.org/2000/svg" version="1.1" xmlns:xlink="http://www.w3.org/1999/xlink" xmlns:svgjs="http://svgjs.com/svgjs" width="512" height="512" x="0" y="0" viewBox="0 0 64 64" style="enable-background:new 0 0 512 512" xml:space="preserve" class=""><g><g xmlns="http://www.w3.org/2000/svg" id="Layer_36" data-name="Layer 36"><circle cx="32" cy="32" fill="#6d6e71" r="29" data-original="#6d6e71" class=""></circle><circle cx="32" cy="32" fill="#58595b" r="25" data-original="#58595b" class=""></circle><path d="m32.145 3a29.023 29.023 0 0 1 .69 4.017 25 25 0 1 1 -24.911 31.712 29.35 29.35 0 0 1 -3.924.271c-.049 0-.1 0-.145 0a29 29 0 1 0 28.29-36z" fill="#58595b" data-original="#58595b" class=""></path><path d="m32 57a25 25 0 0 0 .835-49.979 29.013 29.013 0 0 1 .165 2.979 29 29 0 0 1 -25.076 28.729 25 25 0 0 0 24.076 18.271z" fill="#414042" data-original="#414042" class=""></path><path d="m46 38h-23l-5 6h23z" fill="#424ede" data-original="#424ede"></path><path d="m46 35-5-6h-23l5 6z" fill="#2488ff" data-original="#2488ff" class=""></path><path d="m46 20h-23l-5 6h23z" fill="#00ddc2" data-original="#00ddc2" class=""></path></g></g></svg>