<svg xmlns="http://www.w3.org/2000/svg" version="1.1" xmlns:xlink="http://www.w3.org/1999/xlink" xmlns:svgjs="http://svgjs.com/svgjs" width="512" height="512" x="0" y="0" viewBox="0 0 64 64" style="enable-background:new 0 0 512 512" xml:space="preserve" class=""><g><g xmlns="http://www.w3.org/2000/svg" id="Layer_43" data-name="Layer 43"><circle cx="32" cy="32" fill="#00eed1" r="29" data-original="#00eed1" class=""></circle><circle cx="32" cy="32" fill="#00ddc2" r="25" data-original="#00ddc2" class=""></circle><path d="m32.145 3a29.023 29.023 0 0 1 .69 4.017 25 25 0 1 1 -24.911 31.712 29.35 29.35 0 0 1 -3.924.271c-.049 0-.1 0-.145 0a29 29 0 1 0 28.29-36z" fill="#00ddc2" data-original="#00ddc2" class=""></path><path d="m32 57a25 25 0 0 0 .835-49.979 29.013 29.013 0 0 1 .165 2.979 29 29 0 0 1 -25.076 28.729 25 25 0 0 0 24.076 18.271z" fill="#00ccb3" data-original="#00ccb3"></path><path d="m41 19h-18a3 3 0 0 0 0 6h6v21a3 3 0 0 0 6 0v-21h6a3 3 0 0 0 0-6z" fill="#f1f2f2" data-original="#f1f2f2"></path><path d="m32 39c-1.013 0-2.046-.038-3.073-.112-5.281-.379-10.927-1.861-10.927-4.888 0-2.086 2.858-3.74 7.842-4.536a1 1 0 0 1 .316 1.974c-4.607.737-6.158 2.068-6.158 2.562 0 .8 3.031 2.46 9.071 2.893a40.3 40.3 0 0 0 5.856 0c6.042-.433 9.073-2.088 9.073-2.893 0-.494-1.551-1.825-6.158-2.562a1 1 0 0 1 .316-1.974c4.984.796 7.842 2.45 7.842 4.536 0 3.027-5.646 4.509-10.929 4.888-1.025.074-2.058.112-3.071.112z" fill="#e6e7e8" data-original="#e6e7e8"></path></g></g></svg>