<svg xmlns="http://www.w3.org/2000/svg" version="1.1" xmlns:xlink="http://www.w3.org/1999/xlink" xmlns:svgjs="http://svgjs.com/svgjs" width="512" height="512" x="0" y="0" viewBox="0 0 480.073 480.073" style="enable-background:new 0 0 512 512" xml:space="preserve" class=""><g><circle xmlns="http://www.w3.org/2000/svg" cx="240.059" cy="240.021" fill="#b9dcff" r="232" data-original="#b9dcff" class=""></circle><path xmlns="http://www.w3.org/2000/svg" d="m47.679 314.92c3.169 15.54-19.119 21.903-24.724 7.067-9.628-25.486-14.896-53.111-14.896-81.966 0-128.836 104.942-232.95 233.758-231.993 15.969.119 17.501 23.342 1.702 25.673-127.893 18.874-221.755 154.14-195.84 281.219z" fill="#d1e7ff" data-original="#d1e7ff" class=""></path><circle xmlns="http://www.w3.org/2000/svg" cx="240.059" cy="240.021" fill="#d1e7ff" r="153" data-original="#d1e7ff" class=""></circle><path xmlns="http://www.w3.org/2000/svg" d="m101.324 304.616c-9.567-20.512-14.719-43.498-14.234-67.735 1.697-84.69 70.941-151.061 155.223-149.844 12.645.183 14.1 18.417 1.645 20.606-84.581 14.871-143.532 106.457-123.173 190.012 2.979 12.221-14.144 18.361-19.461 6.961z" fill="#e8f3ff" data-original="#e8f3ff" class=""></path><path xmlns="http://www.w3.org/2000/svg" d="m303.179 164.661-150.31-6.64 73.88 200.37 130.31-140.511z" fill="#b9dcff" data-original="#b9dcff" class=""></path><g xmlns="http://www.w3.org/2000/svg" fill="#2e58ff"><path d="m379.989 45.012c-3.588-2.58-8.586-1.76-11.166 1.827-2.579 3.588-1.761 8.587 1.827 11.166 58.49 42.042 93.409 110.085 93.409 182.016 0 123.514-100.486 224-224 224s-224-100.486-224-224 100.486-224 224-224c33.192 0 65.138 7.085 94.951 21.059 4.002 1.875 8.764.152 10.639-3.849s.152-8.764-3.848-10.639c-87.253-40.896-196.898-27.044-271.632 47.888-93.538 93.786-93.62 245.441.185 339.246 93.791 93.791 245.756 93.853 339.552-.153 105.275-105.511 89.469-278.747-29.917-364.561z" fill="#2e58ff" data-original="#2e58ff" class=""></path><path d="m292.03 87.594c-107.25-36.46-218.061 46.381-212.796 159.983.205 4.413 3.928 7.819 8.362 7.621 4.413-.205 7.825-3.948 7.621-8.362-4.808-103.726 96.388-176.483 191.657-144.096 58.728 20.023 98.185 75.192 98.185 137.28 0 79.953-65.047 145-145 145-55.801 0-107.281-32.62-131.151-83.103-1.889-3.993-6.658-5.7-10.652-3.813-3.994 1.889-5.701 6.658-3.813 10.652 26.424 55.883 82.692 92.263 145.616 92.263 88.776 0 161-72.224 161-161 0-68.935-43.812-130.189-109.029-152.425z" fill="#2e58ff" data-original="#2e58ff" class=""></path><path d="m82.101 351.225c-3.503 2.693-4.159 7.715-1.466 11.218 2.316 3.012 4.75 5.999 7.235 8.877 2.882 3.34 7.935 3.719 11.283.828 3.345-2.887 3.715-7.939.828-11.283-2.288-2.651-4.529-5.401-6.662-8.174-2.692-3.502-7.716-4.159-11.218-1.466z" fill="#2e58ff" data-original="#2e58ff" class=""></path><path d="m391.658 128.563c6.591 0 10.444-7.672 6.275-12.956-2.351-2.979-4.821-5.936-7.343-8.786-2.929-3.309-7.983-3.618-11.293-.689-3.309 2.928-3.617 7.984-.689 11.293 2.324 2.625 4.599 5.348 6.764 8.092 1.578 2.001 3.921 3.046 6.286 3.046z" fill="#2e58ff" data-original="#2e58ff" class=""></path><path d="m157.032 405.394c-3.948-1.987-8.756-.395-10.742 3.552-1.985 3.947-.395 8.756 3.552 10.742 3.391 1.706 6.877 3.335 10.359 4.844 4.077 1.764 8.774-.13 10.521-4.162 1.756-4.054-.108-8.765-4.162-10.521-3.202-1.387-6.408-2.886-9.528-4.455z" fill="#2e58ff" data-original="#2e58ff" class=""></path><path d="m237.315 425c-4.405-.091-8.054 3.459-8.121 7.877-.067 4.417 3.459 8.054 7.877 8.121 3.936.06 7.775.003 11.446-.148 4.415-.182 7.846-3.908 7.664-8.323s-3.925-7.843-8.323-7.664c-3.486.145-7.019.193-10.543.137z" fill="#2e58ff" data-original="#2e58ff" class=""></path><path d="m389.844 348.63c-2.052 2.824-4.215 5.631-6.431 8.343-2.796 3.421-2.289 8.461 1.133 11.257 3.444 2.814 8.479 2.267 11.257-1.133 2.407-2.946 4.757-5.995 6.987-9.064 2.597-3.575 1.804-8.578-1.771-11.174-3.576-2.596-8.578-1.802-11.175 1.771z" fill="#2e58ff" data-original="#2e58ff" class=""></path><path d="m422.198 272.579c-.612 3.448-1.331 6.919-2.137 10.319-1.019 4.299 1.64 8.61 5.939 9.629 4.331 1.027 8.618-1.671 9.629-5.939.876-3.694 1.657-7.467 2.322-11.213.772-4.35-2.128-8.502-6.479-9.275-4.352-.773-8.501 2.129-9.274 6.479z" fill="#2e58ff" data-original="#2e58ff" class=""></path><path d="m327.585 403.043c-3.089 1.662-6.262 3.254-9.431 4.732-4.004 1.868-5.735 6.628-3.868 10.632 1.871 4.01 6.633 5.733 10.632 3.868 3.443-1.606 6.891-3.336 10.247-5.142 3.891-2.093 5.348-6.945 3.255-10.835-2.094-3.891-6.945-5.346-10.835-3.255z" fill="#2e58ff" data-original="#2e58ff" class=""></path><path d="m50.49 211.683c3.765 0 7.12-2.67 7.85-6.504.655-3.441 1.418-6.904 2.266-10.291 1.073-4.286-1.531-8.63-5.817-9.704-4.286-1.072-8.63 1.531-9.704 5.817-.922 3.682-1.751 7.444-2.463 11.184-.938 4.927 2.84 9.498 7.868 9.498z" fill="#2e58ff" data-original="#2e58ff" class=""></path><path d="m45.827 291.937c1.136 4.254 5.506 6.808 9.792 5.667 4.269-1.14 6.806-5.524 5.667-9.792-.901-3.375-1.716-6.824-2.423-10.253-.892-4.328-5.122-7.112-9.451-6.219-4.327.892-7.112 5.124-6.219 9.451.769 3.727 1.655 7.477 2.634 11.146z" fill="#2e58ff" data-original="#2e58ff" class=""></path><path d="m433.625 185.67c-1.192-4.254-5.607-6.735-9.863-5.542-4.254 1.193-6.736 5.609-5.542 9.863.944 3.368 1.803 6.807 2.553 10.222.82 3.738 4.13 6.287 7.806 6.287 5.099 0 8.921-4.71 7.822-9.716-.815-3.714-1.749-7.453-2.776-11.114z" fill="#2e58ff" data-original="#2e58ff" class=""></path><path d="m321.006 73.617c3.966 1.932 8.758.29 10.696-3.688 1.936-3.972.285-8.761-3.687-10.696-3.413-1.663-6.918-3.249-10.419-4.712-4.076-1.705-8.763.217-10.467 4.294-1.705 4.076.218 8.762 4.294 10.467 3.221 1.347 6.445 2.805 9.583 4.335z" fill="#2e58ff" data-original="#2e58ff" class=""></path><path d="m150.892 76.818c3.075 0 3.217-1.024 13.184-5.522 4.027-1.817 5.819-6.555 4.002-10.582s-6.554-5.82-10.582-4.002c-3.466 1.563-6.935 3.25-10.313 5.013-3.917 2.044-5.435 6.877-3.391 10.794 1.429 2.734 4.215 4.299 7.1 4.299z" fill="#2e58ff" data-original="#2e58ff" class=""></path><path d="m80.454 131.17c3.549 2.647 8.559 1.904 11.196-1.629 2.092-2.804 4.291-5.585 6.537-8.264 2.838-3.386 2.394-8.432-.992-11.271-3.388-2.839-8.433-2.394-11.271.992-2.439 2.91-4.828 5.93-7.1 8.976-2.641 3.541-1.911 8.554 1.63 11.196z" fill="#2e58ff" data-original="#2e58ff" class=""></path><path d="m234.582 55.095c3.487-.1 7.015-.103 10.55-.005 4.43.121 8.095-3.361 8.216-7.778s-3.361-8.095-7.778-8.216c-3.831-.105-7.66-.103-11.444.006-4.417.126-7.895 3.809-7.768 8.225.126 4.463 3.868 7.905 8.224 7.768z" fill="#2e58ff" data-original="#2e58ff" class=""></path><path d="m266.606 163.045c.195-4.414-3.225-8.15-7.639-8.345l-105.747-4.672c-5.565-.254-9.776 5.234-7.899 10.626.265.758 72.903 197.755 73.918 200.506 2.068 5.61 9.331 7.029 13.372 2.672l130.314-140.512c2.938-3.167 2.83-8.096-.244-11.131-57.784-57.076-54.246-53.83-55.883-54.661-2.778-1.411-6.245-1.091-8.732.985-.946.787 2.508-3.48-52.863 66.971l-69.236-58.434 82.293 3.635c4.431.184 8.151-3.226 8.346-7.64zm-28.852 77.088-8.169 50.546c-.705 4.362 2.259 8.469 6.621 9.174 4.372.706 8.471-2.27 9.174-6.621l7.98-49.378 59.946-10.323c4.354-.75 7.276-4.887 6.526-9.241s-4.89-7.28-9.241-6.526l-45.071 7.761 38.414-48.875 41.988 41.474-116.18 125.273-58.893-159.732z" fill="#2e58ff" data-original="#2e58ff" class=""></path></g></g></svg>