<svg xmlns="http://www.w3.org/2000/svg" xmlns:xlink="http://www.w3.org/1999/xlink" width="2000" zoomAndPan="magnify" viewBox="0 0 1500 225" height="300" preserveAspectRatio="xMidYMid meet" version="1.2"><defs><clipPath id="9086e9b224"><path d="M 19 3.800781 L 216 3.800781 L 216 134 L 19 134 Z M 19 3.800781 "/></clipPath><clipPath id="c6ce6fc638"><path d="M 23 91 L 237 91 L 237 221.300781 L 23 221.300781 Z M 23 91 "/></clipPath><clipPath id="a6d54892f5"><path d="M 9.363281 39 L 265.863281 39 L 265.863281 147 L 9.363281 147 Z M 9.363281 39 "/></clipPath></defs><g id="a198c6f08d"><g style="fill:#eac942;fill-opacity:0.4;"><g transform="translate(300.24217, 169.518493)"><path style="stroke:none" d="M 54 -132 L 86 -132 C 92.664062 -132 98.332031 -129.664062 103 -125 C 107.664062 -120.332031 110 -114.664062 110 -108 L 86 -100 L 86 -108 L 38 -108 L 38 -40 C 38 -34.53125 39.960938 -29.828125 43.890625 -25.890625 C 47.828125 -21.960938 52.53125 -20 58 -20 L 88 -20 L 88 -56 L 58 -56 L 66 -80 L 88 -80 C 94.664062 -80 100.332031 -77.664062 105 -73 C 109.664062 -68.332031 112 -62.664062 112 -56 L 112 20 L 88 28 L 88 -4 L 80 4 L 58 4 C 45.863281 4 35.492188 -0.296875 26.890625 -8.890625 C 18.296875 -17.492188 14 -27.863281 14 -40 L 14 -56 L 2 -56 L 10 -80 L 14 -80 L 14 -102 Z M 54 -132 "/></g></g><g style="fill:#eac942;fill-opacity:0.4;"><g transform="translate(422.238907, 169.518493)"><path style="stroke:none" d="M 34 -80 L 34 -36 C 34 -31.601562 35.566406 -27.835938 38.703125 -24.703125 C 41.835938 -21.566406 45.601562 -20 50 -20 L 62 -20 L 62 -68 C 62 -71.332031 60.832031 -74.164062 58.5 -76.5 C 56.164062 -78.832031 53.332031 -80 50 -80 Z M 50 -104 C 60 -104 68.5 -100.5 75.5 -93.5 C 82.5 -86.5 86 -78 86 -68 L 86 -20 L 54 4 L 50 4 C 38.9375 4 29.503906 0.0976562 21.703125 -7.703125 C 13.898438 -15.503906 10 -24.9375 10 -36 L 10 -74 Z M 50 -104 "/></g></g><g style="fill:#eac942;fill-opacity:0.4;"><g transform="translate(518.236363, 169.518493)"><path style="stroke:none" d="M 12 -134 L 16 -134 C 22.664062 -134 28.332031 -131.664062 33 -127 C 37.664062 -122.332031 40 -116.664062 40 -110 L 40 -24 C 40 -22.9375 40.398438 -22.003906 41.203125 -21.203125 C 42.003906 -20.398438 42.9375 -20 44 -20 L 56 -20 L 48 4 L 44 4 C 36.269531 4 29.671875 1.265625 24.203125 -4.203125 C 18.734375 -9.671875 16 -16.269531 16 -24 L 16 -110 L 4 -110 Z M 12 -134 "/></g></g><g style="fill:#eac942;fill-opacity:0.4;"><g transform="translate(576.234789, 169.518493)"><path style="stroke:none" d="M 50 -80 C 45.601562 -80 41.835938 -78.429688 38.703125 -75.296875 C 35.566406 -72.160156 34 -68.394531 34 -64 L 34 -28 C 34 -25.726562 34.765625 -23.828125 36.296875 -22.296875 C 37.828125 -20.765625 39.726562 -20 42 -20 L 62 -20 L 62 -80 Z M 86 -146 L 86 -20 L 98 -20 L 90 4 L 86 4 C 80.800781 4 76.132812 2.5 72 -0.5 C 67.863281 -3.5 65 -7.332031 63.40625 -12 L 42 4 C 33.195312 4 25.660156 0.867188 19.390625 -5.390625 C 13.128906 -11.660156 10 -19.195312 10 -28 L 10 -64 C 10 -75.0625 13.898438 -84.492188 21.703125 -92.296875 C 29.503906 -100.097656 38.9375 -104 50 -104 L 62 -95 L 62 -142 Z M 86 -146 "/></g></g><g style="fill:#eac942;fill-opacity:0.4;"><g transform="translate(676.232114, 169.518493)"><path style="stroke:none" d="M 34 -80 L 34 -45 L 62 -66 L 62 -68 C 62 -71.332031 60.832031 -74.164062 58.5 -76.5 C 56.164062 -78.832031 53.332031 -80 50 -80 Z M 50 -104 C 60 -104 68.5 -100.5 75.5 -93.5 C 82.5 -86.5 86 -78 86 -68 L 86 -66 L 46 -36 L 34 -36 C 34 -31.601562 35.566406 -27.835938 38.703125 -24.703125 C 41.835938 -21.566406 45.601562 -20 50 -20 L 82 -20 L 66 4 L 50 4 C 38.9375 4 29.503906 0.0976562 21.703125 -7.703125 C 13.898438 -15.503906 10 -24.9375 10 -36 L 10 -74 Z M 50 -104 "/></g></g><g style="fill:#eac942;fill-opacity:0.4;"><g transform="translate(770.229623, 169.518493)"><path style="stroke:none" d="M 10 -104 L 14 -104 C 19.195312 -104 23.863281 -102.5 28 -99.5 C 32.132812 -96.5 35 -92.664062 36.59375 -88 L 58 -104 C 65.726562 -104 72.328125 -101.265625 77.796875 -95.796875 C 83.265625 -90.328125 86 -83.726562 86 -76 L 86 -4 L 62 4 L 62 -76 C 62 -77.0625 61.597656 -77.992188 60.796875 -78.796875 C 59.992188 -79.597656 59.0625 -80 58 -80 L 38 -80 L 38 0 L 14 0 L 14 -80 L 2 -80 Z M 10 -104 "/></g></g><g style="fill:#eac942;fill-opacity:1;"><g transform="translate(291.403318, 160.679646)"><path style="stroke:none" d="M 54 -132 L 86 -132 C 92.664062 -132 98.332031 -129.664062 103 -125 C 107.664062 -120.332031 110 -114.664062 110 -108 L 86 -100 L 86 -108 L 38 -108 L 38 -40 C 38 -34.53125 39.960938 -29.828125 43.890625 -25.890625 C 47.828125 -21.960938 52.53125 -20 58 -20 L 88 -20 L 88 -56 L 58 -56 L 66 -80 L 88 -80 C 94.664062 -80 100.332031 -77.664062 105 -73 C 109.664062 -68.332031 112 -62.664062 112 -56 L 112 20 L 88 28 L 88 -4 L 80 4 L 58 4 C 45.863281 4 35.492188 -0.296875 26.890625 -8.890625 C 18.296875 -17.492188 14 -27.863281 14 -40 L 14 -56 L 2 -56 L 10 -80 L 14 -80 L 14 -102 Z M 54 -132 "/></g></g><g style="fill:#eac942;fill-opacity:1;"><g transform="translate(413.400055, 160.679646)"><path style="stroke:none" d="M 34 -80 L 34 -36 C 34 -31.601562 35.566406 -27.835938 38.703125 -24.703125 C 41.835938 -21.566406 45.601562 -20 50 -20 L 62 -20 L 62 -68 C 62 -71.332031 60.832031 -74.164062 58.5 -76.5 C 56.164062 -78.832031 53.332031 -80 50 -80 Z M 50 -104 C 60 -104 68.5 -100.5 75.5 -93.5 C 82.5 -86.5 86 -78 86 -68 L 86 -20 L 54 4 L 50 4 C 38.9375 4 29.503906 0.0976562 21.703125 -7.703125 C 13.898438 -15.503906 10 -24.9375 10 -36 L 10 -74 Z M 50 -104 "/></g></g><g style="fill:#eac942;fill-opacity:1;"><g transform="translate(509.397511, 160.679646)"><path style="stroke:none" d="M 12 -134 L 16 -134 C 22.664062 -134 28.332031 -131.664062 33 -127 C 37.664062 -122.332031 40 -116.664062 40 -110 L 40 -24 C 40 -22.9375 40.398438 -22.003906 41.203125 -21.203125 C 42.003906 -20.398438 42.9375 -20 44 -20 L 56 -20 L 48 4 L 44 4 C 36.269531 4 29.671875 1.265625 24.203125 -4.203125 C 18.734375 -9.671875 16 -16.269531 16 -24 L 16 -110 L 4 -110 Z M 12 -134 "/></g></g><g style="fill:#eac942;fill-opacity:1;"><g transform="translate(567.395937, 160.679646)"><path style="stroke:none" d="M 50 -80 C 45.601562 -80 41.835938 -78.429688 38.703125 -75.296875 C 35.566406 -72.160156 34 -68.394531 34 -64 L 34 -28 C 34 -25.726562 34.765625 -23.828125 36.296875 -22.296875 C 37.828125 -20.765625 39.726562 -20 42 -20 L 62 -20 L 62 -80 Z M 86 -146 L 86 -20 L 98 -20 L 90 4 L 86 4 C 80.800781 4 76.132812 2.5 72 -0.5 C 67.863281 -3.5 65 -7.332031 63.40625 -12 L 42 4 C 33.195312 4 25.660156 0.867188 19.390625 -5.390625 C 13.128906 -11.660156 10 -19.195312 10 -28 L 10 -64 C 10 -75.0625 13.898438 -84.492188 21.703125 -92.296875 C 29.503906 -100.097656 38.9375 -104 50 -104 L 62 -95 L 62 -142 Z M 86 -146 "/></g></g><g style="fill:#eac942;fill-opacity:1;"><g transform="translate(667.393263, 160.679646)"><path style="stroke:none" d="M 34 -80 L 34 -45 L 62 -66 L 62 -68 C 62 -71.332031 60.832031 -74.164062 58.5 -76.5 C 56.164062 -78.832031 53.332031 -80 50 -80 Z M 50 -104 C 60 -104 68.5 -100.5 75.5 -93.5 C 82.5 -86.5 86 -78 86 -68 L 86 -66 L 46 -36 L 34 -36 C 34 -31.601562 35.566406 -27.835938 38.703125 -24.703125 C 41.835938 -21.566406 45.601562 -20 50 -20 L 82 -20 L 66 4 L 50 4 C 38.9375 4 29.503906 0.0976562 21.703125 -7.703125 C 13.898438 -15.503906 10 -24.9375 10 -36 L 10 -74 Z M 50 -104 "/></g></g><g style="fill:#eac942;fill-opacity:1;"><g transform="translate(761.390772, 160.679646)"><path style="stroke:none" d="M 10 -104 L 14 -104 C 19.195312 -104 23.863281 -102.5 28 -99.5 C 32.132812 -96.5 35 -92.664062 36.59375 -88 L 58 -104 C 65.726562 -104 72.328125 -101.265625 77.796875 -95.796875 C 83.265625 -90.328125 86 -83.726562 86 -76 L 86 -4 L 62 4 L 62 -76 C 62 -77.0625 61.597656 -77.992188 60.796875 -78.796875 C 59.992188 -79.597656 59.0625 -80 58 -80 L 38 -80 L 38 0 L 14 0 L 14 -80 L 2 -80 Z M 10 -104 "/></g></g><g clip-rule="nonzero" clip-path="url(#9086e9b224)"><path style=" stroke:none;fill-rule:nonzero;fill:#ffbd59;fill-opacity:1;" d="M 35.890625 120.601562 C 35.65625 117.929688 35.53125 115.226562 35.53125 112.496094 C 35.53125 61.613281 76.925781 20.21875 127.808594 20.21875 C 155.523438 20.21875 180.417969 32.5 197.347656 51.902344 L 197.636719 52.230469 C 200.472656 55.511719 206.171875 63.820312 206.171875 63.820312 C 207.417969 65.816406 208.585938 67.859375 209.679688 69.953125 L 215.84375 64.339844 L 209.300781 57.796875 C 207.832031 56.328125 207.269531 54.175781 207.839844 52.175781 C 208.40625 50.175781 210.015625 48.636719 212.039062 48.160156 L 214.9375 47.472656 C 211.820312 43.308594 208.394531 39.355469 204.671875 35.632812 C 194.691406 25.652344 183.066406 17.816406 170.125 12.339844 C 156.714844 6.671875 142.480469 3.796875 127.808594 3.796875 C 113.136719 3.796875 98.898438 6.671875 85.492188 12.339844 C 72.546875 17.816406 60.921875 25.652344 50.945312 35.632812 C 40.964844 45.613281 33.128906 57.238281 27.652344 70.183594 C 21.984375 83.589844 19.109375 97.828125 19.109375 112.496094 C 19.109375 119.488281 19.769531 126.378906 21.066406 133.128906 Z M 35.890625 120.601562 "/></g><g clip-rule="nonzero" clip-path="url(#c6ce6fc638)"><path style=" stroke:none;fill-rule:nonzero;fill:#ffbd59;fill-opacity:1;" d="M 219.5625 102.636719 C 219.910156 105.878906 220.089844 109.167969 220.089844 112.496094 C 220.089844 163.378906 178.691406 204.777344 127.808594 204.777344 C 85.214844 204.777344 49.273438 175.765625 38.695312 136.464844 L 23.628906 143.601562 C 24.761719 147.394531 26.097656 151.136719 27.652344 154.8125 C 33.128906 167.757812 40.964844 179.378906 50.945312 189.359375 C 60.925781 199.339844 72.550781 207.179688 85.496094 212.652344 C 98.902344 218.324219 113.136719 221.195312 127.808594 221.195312 C 142.480469 221.195312 156.71875 218.320312 170.125 212.652344 C 183.070312 207.179688 194.695312 199.339844 204.675781 189.359375 C 214.65625 179.378906 222.492188 167.757812 227.964844 154.808594 C 233.636719 141.402344 236.511719 127.164062 236.511719 112.496094 C 236.511719 105.265625 235.808594 98.140625 234.421875 91.171875 Z M 219.5625 102.636719 "/></g><path style=" stroke:none;fill-rule:nonzero;fill:#ed1c24;fill-opacity:1;" d="M 178.519531 134.304688 L 178.519531 139.394531 L 187.054688 139.394531 L 187.054688 156.792969 L 194.597656 156.792969 L 194.597656 139.394531 L 203.132812 139.394531 L 203.132812 115.316406 Z M 178.519531 134.304688 "/><path style=" stroke:none;fill-rule:nonzero;fill:#ed1c24;fill-opacity:1;" d="M 146.644531 140.828125 L 146.644531 158.398438 L 155.179688 158.398438 L 155.179688 175.800781 L 162.71875 175.800781 L 162.71875 158.398438 L 171.257812 158.398438 L 171.257812 139.90625 L 159.058594 149.320312 Z M 146.644531 140.828125 "/><path style=" stroke:none;fill-rule:nonzero;fill:#ed1c24;fill-opacity:1;" d="M 114.765625 139.394531 L 123.300781 139.394531 L 123.300781 156.792969 L 130.84375 156.792969 L 130.84375 139.394531 L 139.378906 139.394531 L 139.378906 135.863281 L 114.765625 119.03125 Z M 114.765625 139.394531 "/><path style=" stroke:none;fill-rule:nonzero;fill:#ed1c24;fill-opacity:1;" d="M 82.890625 115.527344 L 82.890625 124.179688 L 91.425781 124.179688 L 91.425781 141.582031 L 98.964844 141.582031 L 98.964844 124.179688 L 107.503906 124.179688 L 107.503906 114.066406 L 98.691406 108.039062 Z M 82.890625 115.527344 "/><path style=" stroke:none;fill-rule:nonzero;fill:#ed1c24;fill-opacity:1;" d="M 59.550781 129.054688 L 59.550781 169.230469 L 67.089844 169.230469 L 67.089844 129.054688 L 75.625 129.054688 L 75.625 118.96875 L 54.339844 129.054688 Z M 59.550781 129.054688 "/><g clip-rule="nonzero" clip-path="url(#a6d54892f5)"><path style=" stroke:none;fill-rule:nonzero;fill:#8dc63f;fill-opacity:1;" d="M 261.769531 39.539062 L 212.738281 51.117188 C 210.683594 51.601562 209.957031 54.15625 211.449219 55.648438 L 220.246094 64.445312 L 203.128906 80.027344 L 203.128906 65.691406 L 194.597656 65.691406 L 194.597656 54.941406 L 187.054688 54.941406 L 187.054688 65.691406 L 178.519531 65.691406 L 178.519531 102.433594 L 171.257812 109.042969 L 171.257812 99.183594 L 162.722656 99.183594 L 162.722656 73.949219 L 155.183594 73.949219 L 155.183594 99.183594 L 146.648438 99.183594 L 146.648438 111.40625 L 139.386719 106.191406 L 139.386719 83.234375 L 130.84375 83.234375 L 130.84375 54.941406 L 123.300781 54.941406 L 123.300781 83.234375 L 114.769531 83.234375 L 114.769531 88.511719 L 107.503906 83.292969 L 107.503906 57.128906 L 98.972656 57.128906 L 98.972656 39.726562 L 91.429688 39.726562 L 91.429688 57.128906 L 82.894531 57.128906 L 82.894531 84.859375 L 75.632812 91 L 75.632812 84.777344 L 67.089844 84.777344 L 67.089844 67.375 L 59.550781 67.375 L 59.550781 84.777344 L 51.015625 84.777344 L 51.015625 111.800781 L 9.386719 146.984375 L 98.96875 104.546875 L 158.949219 145.5625 L 239.289062 83.582031 L 239.289062 83.484375 L 248.90625 93.101562 C 250.398438 94.59375 252.949219 93.871094 253.433594 91.816406 L 265.015625 42.78125 C 265.476562 40.832031 263.722656 39.078125 261.769531 39.539062 Z M 261.769531 39.539062 "/></g><g style="fill:#eac942;fill-opacity:0.4;"><g transform="translate(899.352512, 169.518493)"><path style="stroke:none" d="M 12 -132 L 80 -132 L 72 -108 L 52 -108 L 52 -30 L 44 -22 L 80 -22 L 72 2 L 4 2 L 12 -22 L 28 -22 L 28 -56 L 16 -56 L 24 -80 L 28 -80 L 28 -100 L 36 -108 L 4 -108 Z M 12 -132 "/></g></g><g style="fill:#eac942;fill-opacity:0.4;"><g transform="translate(983.350277, 169.518493)"><path style="stroke:none" d="M 10 -104 L 14 -104 C 19.195312 -104 23.863281 -102.5 28 -99.5 C 32.132812 -96.5 35 -92.664062 36.59375 -88 L 58 -104 C 65.726562 -104 72.328125 -101.265625 77.796875 -95.796875 C 83.265625 -90.328125 86 -83.726562 86 -76 L 86 -4 L 62 4 L 62 -76 C 62 -77.0625 61.597656 -77.992188 60.796875 -78.796875 C 59.992188 -79.597656 59.0625 -80 58 -80 L 38 -80 L 38 0 L 14 0 L 14 -80 L 2 -80 Z M 10 -104 "/></g></g><g style="fill:#eac942;fill-opacity:0.4;"><g transform="translate(1079.347733, 169.518493)"><path style="stroke:none" d="M 50 -104 L 74 -104 L 66 -80 L 34 -80 L 34 -36 C 34 -31.601562 35.566406 -27.835938 38.703125 -24.703125 C 41.835938 -21.566406 45.601562 -20 50 -20 L 74 -20 L 58 4 L 50 4 C 38.9375 4 29.503906 0.0976562 21.703125 -7.703125 C 13.898438 -15.503906 10 -24.9375 10 -36 L 10 -74 Z M 50 -104 "/></g></g><g style="fill:#eac942;fill-opacity:0.4;"><g transform="translate(1155.345712, 169.518493)"><path style="stroke:none" d="M 34 -80 L 34 -36 C 34 -31.601562 35.566406 -27.835938 38.703125 -24.703125 C 41.835938 -21.566406 45.601562 -20 50 -20 L 62 -20 L 62 -68 C 62 -71.332031 60.832031 -74.164062 58.5 -76.5 C 56.164062 -78.832031 53.332031 -80 50 -80 Z M 50 -104 C 60 -104 68.5 -100.5 75.5 -93.5 C 82.5 -86.5 86 -78 86 -68 L 86 -20 L 54 4 L 50 4 C 38.9375 4 29.503906 0.0976562 21.703125 -7.703125 C 13.898438 -15.503906 10 -24.9375 10 -36 L 10 -74 Z M 50 -104 "/></g></g><g style="fill:#eac942;fill-opacity:0.4;"><g transform="translate(1251.343167, 169.518493)"><path style="stroke:none" d="M 10 -104 L 14 -104 C 19.195312 -104 23.863281 -102.5 28 -99.5 C 32.132812 -96.5 35 -92.664062 36.59375 -88 L 58 -104 C 63.601562 -104 68.738281 -102.460938 73.40625 -99.390625 C 78.070312 -96.328125 81.46875 -92.265625 83.59375 -87.203125 L 106 -104 C 113.726562 -104 120.328125 -101.265625 125.796875 -95.796875 C 131.265625 -90.328125 134 -83.726562 134 -76 L 134 -4 L 110 4 L 110 -76 C 110 -77.0625 109.597656 -77.992188 108.796875 -78.796875 C 107.992188 -79.597656 107.0625 -80 106 -80 L 86 -80 L 86 0 L 62 0 L 62 -76 C 62 -77.0625 61.597656 -77.992188 60.796875 -78.796875 C 59.992188 -79.597656 59.0625 -80 58 -80 L 38 -80 L 38 0 L 14 0 L 14 -80 L 2 -80 Z M 10 -104 "/></g></g><g style="fill:#eac942;fill-opacity:0.4;"><g transform="translate(1395.339336, 169.518493)"><path style="stroke:none" d="M 34 -80 L 34 -45 L 62 -66 L 62 -68 C 62 -71.332031 60.832031 -74.164062 58.5 -76.5 C 56.164062 -78.832031 53.332031 -80 50 -80 Z M 50 -104 C 60 -104 68.5 -100.5 75.5 -93.5 C 82.5 -86.5 86 -78 86 -68 L 86 -66 L 46 -36 L 34 -36 C 34 -31.601562 35.566406 -27.835938 38.703125 -24.703125 C 41.835938 -21.566406 45.601562 -20 50 -20 L 82 -20 L 66 4 L 50 4 C 38.9375 4 29.503906 0.0976562 21.703125 -7.703125 C 13.898438 -15.503906 10 -24.9375 10 -36 L 10 -74 Z M 50 -104 "/></g></g><g style="fill:#eac942;fill-opacity:1;"><g transform="translate(890.513624, 160.679646)"><path style="stroke:none" d="M 12 -132 L 80 -132 L 72 -108 L 52 -108 L 52 -30 L 44 -22 L 80 -22 L 72 2 L 4 2 L 12 -22 L 28 -22 L 28 -56 L 16 -56 L 24 -80 L 28 -80 L 28 -100 L 36 -108 L 4 -108 Z M 12 -132 "/></g></g><g style="fill:#eac942;fill-opacity:1;"><g transform="translate(974.511389, 160.679646)"><path style="stroke:none" d="M 10 -104 L 14 -104 C 19.195312 -104 23.863281 -102.5 28 -99.5 C 32.132812 -96.5 35 -92.664062 36.59375 -88 L 58 -104 C 65.726562 -104 72.328125 -101.265625 77.796875 -95.796875 C 83.265625 -90.328125 86 -83.726562 86 -76 L 86 -4 L 62 4 L 62 -76 C 62 -77.0625 61.597656 -77.992188 60.796875 -78.796875 C 59.992188 -79.597656 59.0625 -80 58 -80 L 38 -80 L 38 0 L 14 0 L 14 -80 L 2 -80 Z M 10 -104 "/></g></g><g style="fill:#eac942;fill-opacity:1;"><g transform="translate(1070.508845, 160.679646)"><path style="stroke:none" d="M 50 -104 L 74 -104 L 66 -80 L 34 -80 L 34 -36 C 34 -31.601562 35.566406 -27.835938 38.703125 -24.703125 C 41.835938 -21.566406 45.601562 -20 50 -20 L 74 -20 L 58 4 L 50 4 C 38.9375 4 29.503906 0.0976562 21.703125 -7.703125 C 13.898438 -15.503906 10 -24.9375 10 -36 L 10 -74 Z M 50 -104 "/></g></g><g style="fill:#eac942;fill-opacity:1;"><g transform="translate(1146.506824, 160.679646)"><path style="stroke:none" d="M 34 -80 L 34 -36 C 34 -31.601562 35.566406 -27.835938 38.703125 -24.703125 C 41.835938 -21.566406 45.601562 -20 50 -20 L 62 -20 L 62 -68 C 62 -71.332031 60.832031 -74.164062 58.5 -76.5 C 56.164062 -78.832031 53.332031 -80 50 -80 Z M 50 -104 C 60 -104 68.5 -100.5 75.5 -93.5 C 82.5 -86.5 86 -78 86 -68 L 86 -20 L 54 4 L 50 4 C 38.9375 4 29.503906 0.0976562 21.703125 -7.703125 C 13.898438 -15.503906 10 -24.9375 10 -36 L 10 -74 Z M 50 -104 "/></g></g><g style="fill:#eac942;fill-opacity:1;"><g transform="translate(1242.50428, 160.679646)"><path style="stroke:none" d="M 10 -104 L 14 -104 C 19.195312 -104 23.863281 -102.5 28 -99.5 C 32.132812 -96.5 35 -92.664062 36.59375 -88 L 58 -104 C 63.601562 -104 68.738281 -102.460938 73.40625 -99.390625 C 78.070312 -96.328125 81.46875 -92.265625 83.59375 -87.203125 L 106 -104 C 113.726562 -104 120.328125 -101.265625 125.796875 -95.796875 C 131.265625 -90.328125 134 -83.726562 134 -76 L 134 -4 L 110 4 L 110 -76 C 110 -77.0625 109.597656 -77.992188 108.796875 -78.796875 C 107.992188 -79.597656 107.0625 -80 106 -80 L 86 -80 L 86 0 L 62 0 L 62 -76 C 62 -77.0625 61.597656 -77.992188 60.796875 -78.796875 C 59.992188 -79.597656 59.0625 -80 58 -80 L 38 -80 L 38 0 L 14 0 L 14 -80 L 2 -80 Z M 10 -104 "/></g></g><g style="fill:#eac942;fill-opacity:1;"><g transform="translate(1386.500449, 160.679646)"><path style="stroke:none" d="M 34 -80 L 34 -45 L 62 -66 L 62 -68 C 62 -71.332031 60.832031 -74.164062 58.5 -76.5 C 56.164062 -78.832031 53.332031 -80 50 -80 Z M 50 -104 C 60 -104 68.5 -100.5 75.5 -93.5 C 82.5 -86.5 86 -78 86 -68 L 86 -66 L 46 -36 L 34 -36 C 34 -31.601562 35.566406 -27.835938 38.703125 -24.703125 C 41.835938 -21.566406 45.601562 -20 50 -20 L 82 -20 L 66 4 L 50 4 C 38.9375 4 29.503906 0.0976562 21.703125 -7.703125 C 13.898438 -15.503906 10 -24.9375 10 -36 L 10 -74 Z M 50 -104 "/></g></g></g></svg>